<svg xmlns="http://www.w3.org/2000/svg" xmlns:xlink="http://www.w3.org/1999/xlink" viewBox="0 0 135 40" xmlns:v="https://vecta.io/nano"><path d="M130.2 0H4.7C2.1 0 0 2.1 0 4.7v30.6C0 37.9 2.1 40 4.7 40h125.5c2.6 0 4.8-2.1 4.8-4.8V4.7c0-2.6-2.2-4.7-4.8-4.7z"/><g fill="#fff"><path d="M30.1 19.8c0-3.2 2.6-4.8 2.8-4.9-1.5-2.2-3.9-2.5-4.7-2.5-2-.2-3.9 1.2-4.9 1.2s-2.6-1.2-4.2-1.1c-2.1 0-4.1 1.3-5.2 3.2-2.3 3.9-.6 9.7 1.6 12.9 1.1 1.6 2.4 3.3 4 3.2s2.2-1 4.2-1c1.9 0 2.5 1 4.2 1s2.8-1.6 3.9-3.1c1.3-1.8 1.8-3.5 1.8-3.6-.1-.2-3.4-1.5-3.5-5.3zm-3.2-9.5c.9-1.1 1.5-2.6 1.3-4.1-1.3.1-2.8.9-3.8 1.9-.8.9-1.5 2.5-1.3 3.9 1.5.2 2.9-.6 3.8-1.7zm26.7 21.2h-2.3l-1.2-3.9h-4.3l-1.2 3.9h-2.2l4.3-13.3h2.6l4.3 13.3zM49.8 26l-1.1-3.5L48 20h0c-.1.6-.3 1.4-.6 2.5L46.2 26h3.6z"/><use xlink:href="#B"/><use xlink:href="#B" x="11"/><path d="M88 27.8c0 1.1-.4 2.1-1.2 2.8-.9.8-2.1 1.2-3.6 1.2-1.4 0-2.6-.3-3.4-.8l.5-1.8c.9.6 2 .9 3.1.9.8 0 1.4-.2 1.9-.5.4-.4.7-.8.7-1.5 0-.5-.2-1-.6-1.4s-1-.7-1.8-1c-2.3-.9-3.5-2.1-3.5-3.8 0-1.1.4-2 1.2-2.7s1.9-1 3.3-1c1.2 0 2.2.2 3 .6l-.6 1.6a5.42 5.42 0 0 0-2.5-.6c-.8 0-1.3.2-1.8.6-.4.3-.5.7-.5 1.2s.2 1 .6 1.3 1 .7 1.9 1c1.1.5 2 1 2.5 1.6.6.6.8 1.4.8 2.3zm7.1-4.3h-2.3v4.7c0 1.2.4 1.8 1.2 1.8.4 0 .7 0 .9-.1l.1 1.6c-.4.2-1 .2-1.7.2-.8 0-1.5-.3-2-.8s-.7-1.4-.7-2.6v-4.8h-1.4v-1.6h1.4v-1.8l2.1-.6v2.4H95c.1 0 .1 1.6.1 1.6zm10.6 3.1c0 1.5-.4 2.7-1.3 3.6-.9 1-2.1 1.5-3.5 1.5s-2.5-.5-3.4-1.4-1.3-2.1-1.3-3.5c0-1.5.4-2.7 1.3-3.7.9-.9 2-1.4 3.5-1.4 1.4 0 2.5.5 3.4 1.4s1.3 2.1 1.3 3.5zm-2.2.1a4.38 4.38 0 0 0-.6-2.3c-.4-.8-1.1-1.1-1.9-1.1-.9 0-1.5.4-2 1.1-.4.6-.6 1.4-.6 2.3A4.38 4.38 0 0 0 99 29c.5.8 1.1 1.1 1.9 1.1s1.5-.4 1.9-1.2c.5-.6.7-1.3.7-2.2zm9.1-2.9c-.2 0-.4-.1-.7-.1-.8 0-1.3.3-1.7.9-.4.5-.5 1.1-.5 1.9v5h-2.1v-6.6l-.1-3h1.9l.1 1.8h.1c.2-.6.6-1.1 1.1-1.5.5-.3 1-.5 1.5-.5h.5c-.1 0-.1 2.1-.1 2.1zm9.6 2.5c0 .4 0 .7-.1 1h-6.4c0 .9.3 1.7.9 2.2.5.4 1.2.7 2.1.7s1.8-.2 2.6-.5l.3 1.5c-.9.4-2 .6-3.2.6-1.5 0-2.7-.4-3.5-1.3s-1.3-2-1.3-3.5c0-1.4.4-2.7 1.2-3.6.8-1 1.9-1.5 3.4-1.5 1.4 0 2.4.5 3.1 1.5.6.6.9 1.7.9 2.9zm-2.1-.6c0-.6-.1-1.2-.4-1.6-.4-.6-.9-.9-1.7-.9-.7 0-1.3.3-1.7.9a2.52 2.52 0 0 0-.6 1.7l4.4-.1h0zM49 10c0 1.2-.4 2.1-1.1 2.7-.7.5-1.6.8-2.8.8-.6 0-1.1 0-1.5-.1V7c.6-.1 1.2-.1 1.8-.1 1.1 0 2 .2 2.6.7.7.6 1 1.4 1 2.4zm-1.1 0c0-.8-.2-1.3-.6-1.8-.4-.4-1-.6-1.8-.6-.3 0-.6 0-.8.1v4.9h.7c.8 0 1.4-.2 1.9-.7s.6-1 .6-1.9z"/><use xlink:href="#C"/><path d="M62.8 8.7l-1.5 4.7h-1l-.6-2c-.2-.5-.3-1-.4-1.5h0c-.1.5-.2 1-.4 1.5l-.6 2h-1l-1.4-4.7H57l.5 2.2.3 1.5h0l.4-1.5.7-2.2h.9l.6 2.2c.2.5.3 1.1.4 1.6h0l.3-1.6.6-2.2h1.1 0zm5.4 4.7h-1v-2.7c0-.8-.3-1.2-.9-1.2-.3 0-.6.1-.8.3s-.3.5-.3.8v2.8h-1V10 8.7h.8v.7h0c.1-.2.3-.4.5-.6.3-.2.6-.3.9-.3.4 0 .8.1 1.1.4.4.3.5.9.5 1.6v2.9h.2zm2.9 0h-1V6.6h1v6.8z"/><use xlink:href="#C" x="22.4"/><path d="M82.3 13.4h-.9l-.1-.5h0c-.3.4-.8.6-1.4.6-.4 0-.8-.1-1.1-.4-.2-.3-.4-.6-.4-1 0-.6.2-1 .7-1.3a3.14 3.14 0 0 1 2-.4v-.1c0-.6-.3-.9-1-.9-.5 0-.9.1-1.2.3l-.1-.7c.4-.3 1-.4 1.6-.4 1.2 0 1.8.6 1.8 1.9v1.7a6.82 6.82 0 0 1 .1 1.2zm-1.1-1.6v-.7c-1.2 0-1.7.3-1.7.9 0 .2.1.4.2.6.1.1.3.2.5.2s.4-.1.6-.2.3-.3.4-.6v-.2zm7.1 1.6h-.9v-.8h0c-.3.6-.8.9-1.5.9-.6 0-1-.2-1.4-.7a2.52 2.52 0 0 1-.6-1.7c0-.8.2-1.4.6-1.9.4-.4.9-.7 1.5-.7s1.1.2 1.3.6h0V6.6h1v5.6c-.1.4 0 .8 0 1.2zm-1.1-2v-.8-.3c-.1-.3-.2-.5-.4-.6-.2-.2-.4-.3-.7-.3-.4 0-.7.2-.9.5s-.3.7-.3 1.2.1.8.3 1.1.5.5.9.5c.3 0 .6-.1.8-.4.2-.2.3-.5.3-.9zm10-.4c0 .7-.2 1.3-.6 1.8s-1 .7-1.7.7a2.19 2.19 0 0 1-1.7-.7 2.52 2.52 0 0 1-.6-1.7c0-.7.2-1.3.6-1.8s1-.7 1.7-.7a2.19 2.19 0 0 1 1.7.7 2.52 2.52 0 0 1 .6 1.7zm-1 .1c0-.4-.1-.8-.3-1.1-.2-.4-.5-.6-.9-.6s-.7.2-1 .6c-.2.3-.3.7-.3 1.1s.1.8.3 1.1a1 1 0 0 0 1 .6c.4 0 .7-.2.9-.6.2-.3.3-.7.3-1.1zm6.7 2.3h-1v-2.7c0-.8-.3-1.2-1-1.2-.3 0-.6.1-.8.3s-.3.5-.3.8v2.8h-1V10 8.7h.9v.7h0c.1-.2.3-.4.5-.6a1.69 1.69 0 0 1 1-.3c.4 0 .8.1 1.1.4.4.3.5.9.5 1.6v2.9h.1zm7-3.9h-1.2v2.3c0 .6.2.9.6.9h.5v.8c-.2.1-.5.1-.8.1-.4 0-.7-.1-1-.4-.2-.3-.3-.7-.3-1.3V9.5h-.7v-.8h.7v-.8l1-.3v1.2h1.2v.7h0zm5.6 3.9h-1v-2.7c0-.8-.3-1.3-.9-1.3-.5 0-.8.2-1 .7v.4 2.8h-1V6.6h1v2.8h0c.3-.5.8-.8 1.4-.8.4 0 .8.1 1.1.4.4.4.5.9.5 1.6-.1 0-.1 2.8-.1 2.8zm5.7-2.5v.5H118c0 .5.2.8.5 1.1a1.69 1.69 0 0 0 1 .3c.5 0 .9-.1 1.3-.2l.2.7c-.4.2-1 .3-1.6.3-.7 0-1.3-.2-1.7-.6s-.6-1-.6-1.7.2-1.3.6-1.8 1-.8 1.6-.8c.7 0 1.2.3 1.5.8.3.3.4.8.4 1.4zm-1-.3c0-.3-.1-.6-.2-.8-.2-.3-.5-.4-.8-.4s-.6.1-.8.4c-.2.2-.3.5-.3.8-.1 0 2.1 0 2.1 0z"/></g><defs ><path id="B" d="M64.7 26.6c0 1.6-.4 2.9-1.3 3.9-.8.8-1.8 1.3-2.9 1.3-1.3 0-2.2-.5-2.7-1.4h0v5.1h-2.1V25.1l-.1-3.2h1.9l.1 1.5h0c.7-1.1 1.8-1.7 3.2-1.7 1.1 0 2.1.4 2.8 1.3s1.1 2.1 1.1 3.6zm-2.2.1c0-.9-.2-1.7-.6-2.3a2.32 2.32 0 0 0-1.9-.9c-.5 0-1 .2-1.4.5-.4.4-.7.8-.8 1.4-.1.3-.1.5-.1.6v1.6c0 .7.2 1.3.6 1.8s1 .7 1.7.7a2.32 2.32 0 0 0 1.9-.9c.4-.7.6-1.5.6-2.5z"/><path id="C" d="M54.9 11c0 .7-.2 1.3-.6 1.8s-1 .7-1.7.7a2.19 2.19 0 0 1-1.7-.7 2.52 2.52 0 0 1-.6-1.7c0-.7.2-1.3.6-1.8s1-.7 1.7-.7a2.19 2.19 0 0 1 1.7.7 2.52 2.52 0 0 1 .6 1.7zm-1.1.1c0-.4-.1-.8-.3-1.1-.2-.4-.5-.6-.9-.6s-.7.2-1 .6c-.2.3-.3.7-.3 1.1s.1.8.3 1.1a1 1 0 0 0 1 .6c.4 0 .7-.2.9-.6.2-.3.3-.7.3-1.1z"/></defs></svg>